<?xml version="1.0" encoding="utf-8" standalone="no"?>
<!DOCTYPE svg PUBLIC "-//W3C//DTD SVG 1.1//EN"
  "http://www.w3.org/Graphics/SVG/1.1/DTD/svg11.dtd">
<!-- Created with matplotlib (https://matplotlib.org/) -->
<svg height="291.6pt" version="1.1" viewBox="0 0 921.15 291.6" width="921.15pt" xmlns="http://www.w3.org/2000/svg" xmlns:xlink="http://www.w3.org/1999/xlink">
 <metadata>
  <rdf:RDF xmlns:cc="http://creativecommons.org/ns#" xmlns:dc="http://purl.org/dc/elements/1.1/" xmlns:rdf="http://www.w3.org/1999/02/22-rdf-syntax-ns#">
   <cc:Work>
    <dc:type rdf:resource="http://purl.org/dc/dcmitype/StillImage"/>
    <dc:date>2022-04-30T17:59:20.774581</dc:date>
    <dc:format>image/svg+xml</dc:format>
    <dc:creator>
     <cc:Agent>
      <dc:title>Matplotlib v3.3.4, https://matplotlib.org/</dc:title>
     </cc:Agent>
    </dc:creator>
   </cc:Work>
  </rdf:RDF>
 </metadata>
 <defs>
  <style type="text/css">*{stroke-linecap:butt;stroke-linejoin:round;}</style>
 </defs>
 <g id="figure_1">
  <g id="patch_1">
   <path d="M 0 291.6 
L 921.15 291.6 
L 921.15 0 
L 0 0 
z
" style="fill:#ffffff;"/>
  </g>
  <g id="axes_1">
   <g id="PolyCollection_1">
    <path clip-path="url(#pea9d488be9)" d="M -613.575 284.4 
L -599.715 284.4 
L -585.855 284.4 
L -571.995 284.4 
L -558.135 284.4 
L -544.275 284.4 
L -530.415 284.4 
L -516.555 284.4 
L -502.695 284.4 
L -488.835 284.4 
L -474.975 284.4 
L -461.115 284.4 
L -447.255 284.4 
L -433.395 284.4 
L -419.535 284.4 
L -405.675 284.4 
L -391.815 284.4 
L -377.955 284.4 
L -364.095 284.4 
L -350.235 284.4 
L -336.375 284.4 
L -322.515 284.4 
L -308.655 284.4 
L -294.795 284.4 
L -280.935 284.4 
L -267.075 284.4 
L -253.215 284.4 
L -239.355 284.4 
L -225.495 284.4 
L -211.635 284.4 
L -197.775 284.4 
L -183.915 284.4 
L -170.055 284.4 
L -156.195 284.4 
L -142.335 284.4 
L -128.475 284.4 
L -114.615 284.4 
L -100.755 284.4 
L -86.895 284.4 
L -73.035 284.4 
L -59.175 284.4 
L -45.315 284.4 
L -31.455 284.4 
L -17.595 284.4 
L -3.735 284.4 
L 10.125 284.4 
L 23.985 284.4 
L 37.845 284.4 
L 51.705 284.4 
L 65.565 284.4 
L 79.425 284.4 
L 93.285 284.4 
L 107.145 284.4 
L 121.005 284.4 
L 134.865 284.4 
L 148.725 284.4 
L 162.585 284.4 
L 176.445 284.4 
L 190.305 284.4 
L 204.165 284.4 
L 218.025 284.4 
L 231.885 284.4 
L 245.745 284.4 
L 259.605 284.4 
L 273.465 284.4 
L 287.325 284.4 
L 301.185 284.4 
L 315.045 284.4 
L 328.905 284.4 
L 342.765 284.4 
L 356.625 284.4 
L 370.485 284.4 
L 384.345 284.4 
L 398.205 284.4 
L 412.065 284.4 
L 425.925 284.4 
L 439.785 284.4 
L 453.645 284.4 
L 467.505 284.4 
L 481.365 284.4 
L 495.225 284.4 
L 509.085 284.4 
L 522.945 284.4 
L 536.805 284.4 
L 550.665 284.4 
L 564.525 284.4 
L 578.385 284.4 
L 592.245 284.4 
L 606.105 284.4 
L 619.965 284.4 
L 633.825 284.4 
L 647.685 284.4 
L 661.545 284.4 
L 675.405 284.4 
L 689.265 284.4 
L 703.125 284.4 
L 716.985 284.4 
L 730.845 284.4 
L 744.705 284.4 
L 758.565 284.4 
L 772.425 284.4 
L 786.285 284.4 
L 800.145 284.4 
L 814.005 284.4 
L 827.865 284.4 
L 841.725 284.4 
L 855.585 284.4 
L 869.445 284.4 
L 883.305 284.4 
L 897.165 284.4 
L 911.025 284.4 
L 924.885 284.4 
L 938.745 284.4 
L 952.605 284.4 
L 966.465 284.4 
L 980.325 284.4 
L 994.185 284.4 
L 1008.045 284.4 
L 1021.905 284.4 
L 1035.765 284.4 
L 1049.625 284.4 
L 1063.485 284.4 
L 1077.345 284.4 
L 1091.205 284.4 
L 1105.065 284.4 
L 1118.925 284.4 
L 1132.785 284.4 
L 1146.645 284.4 
L 1160.505 284.4 
L 1174.365 284.4 
L 1188.225 284.4 
L 1202.085 284.4 
L 1215.945 284.4 
L 1229.805 284.4 
L 1243.665 284.4 
L 1257.525 284.4 
L 1271.385 284.4 
L 1285.245 284.4 
L 1299.105 284.4 
L 1312.965 284.4 
L 1326.825 284.4 
L 1340.685 284.4 
L 1354.545 284.4 
L 1368.405 284.4 
L 1382.265 284.4 
L 1396.125 284.4 
L 1409.985 284.4 
L 1423.845 284.4 
L 1437.705 284.4 
L 1451.565 284.4 
L 1465.425 284.4 
L 1479.285 284.4 
L 1493.145 284.4 
L 1507.005 284.4 
L 1520.865 284.4 
L 1534.725 284.4 
L 1548.585 284.4 
L 1562.445 284.4 
L 1576.305 284.4 
L 1590.165 284.4 
L 1604.025 284.4 
L 1617.885 284.4 
L 1631.745 284.4 
L 1645.605 284.4 
L 1659.465 284.4 
L 1673.325 284.4 
L 1687.185 284.4 
L 1701.045 284.4 
L 1714.905 284.4 
L 1728.765 284.4 
L 1742.625 284.4 
L 1756.485 284.4 
L 1770.345 284.4 
L 1784.205 284.4 
L 1798.065 284.4 
L 1811.925 284.4 
L 1825.785 284.4 
L 1839.645 284.4 
L 1853.505 284.4 
L 1867.365 284.4 
L 1881.225 284.4 
L 1895.085 284.4 
L 1908.945 284.4 
L 1922.805 284.4 
L 1936.665 284.4 
L 1950.525 284.4 
L 1964.385 284.4 
L 1978.245 284.4 
L 1992.105 284.4 
L 2005.965 284.4 
L 2019.825 284.4 
L 2033.685 284.4 
L 2047.545 284.4 
L 2061.405 284.4 
L 2075.265 284.4 
L 2089.125 284.4 
L 2102.985 284.4 
L 2116.845 284.4 
L 2130.705 284.4 
L 2144.565 284.4 
L 2158.425 284.4 
L 2172.285 284.4 
L 2186.145 284.4 
L 2200.005 284.4 
L 2213.865 284.4 
L 2227.725 284.4 
L 2241.585 284.4 
L 2255.445 284.4 
L 2269.305 284.4 
L 2283.165 284.4 
L 2283.165 145.8 
L 2269.305 145.8 
L 2255.445 145.8 
L 2241.585 145.8 
L 2227.725 145.8 
L 2213.865 145.8 
L 2200.005 145.8 
L 2186.145 145.8 
L 2172.285 145.8 
L 2158.425 145.8 
L 2144.565 145.8 
L 2130.705 145.8 
L 2116.845 145.8 
L 2102.985 145.8 
L 2089.125 145.8 
L 2075.265 145.8 
L 2061.405 145.8 
L 2047.545 145.8 
L 2033.685 145.8 
L 2019.825 145.8 
L 2005.965 145.8 
L 1992.105 145.8 
L 1978.245 145.8 
L 1964.385 145.8 
L 1950.525 145.8 
L 1936.665 145.8 
L 1922.805 145.8 
L 1908.945 145.8 
L 1895.085 145.8 
L 1881.225 145.8 
L 1867.365 145.8 
L 1853.505 145.8 
L 1839.645 145.8 
L 1825.785 145.8 
L 1811.925 145.8 
L 1798.065 145.8 
L 1784.205 145.8 
L 1770.345 145.8 
L 1756.485 145.8 
L 1742.625 145.8 
L 1728.765 145.8 
L 1714.905 145.8 
L 1701.045 145.8 
L 1687.185 145.8 
L 1673.325 145.8 
L 1659.465 145.8 
L 1645.605 145.8 
L 1631.745 145.8 
L 1617.885 145.8 
L 1604.025 145.8 
L 1590.165 145.8 
L 1576.305 145.8 
L 1562.445 145.8 
L 1548.585 145.8 
L 1534.725 145.8 
L 1520.865 145.8 
L 1507.005 145.8 
L 1493.145 145.8 
L 1479.285 145.8 
L 1465.425 145.8 
L 1451.565 145.8 
L 1437.705 145.8 
L 1423.845 145.8 
L 1409.985 145.8 
L 1396.125 145.8 
L 1382.265 145.8 
L 1368.405 145.8 
L 1354.545 145.8 
L 1340.685 145.8 
L 1326.825 145.8 
L 1312.965 145.8 
L 1299.105 145.8 
L 1285.245 145.8 
L 1271.385 145.8 
L 1257.525 145.8 
L 1243.665 145.8 
L 1229.805 145.8 
L 1215.945 145.8 
L 1202.085 145.8 
L 1188.225 145.8 
L 1174.365 145.8 
L 1160.505 145.8 
L 1146.645 145.8 
L 1132.785 145.8 
L 1118.925 145.8 
L 1105.065 145.8 
L 1091.205 145.8 
L 1077.345 145.8 
L 1063.485 145.8 
L 1049.625 145.8 
L 1035.765 145.8 
L 1021.905 145.8 
L 1008.045 145.8 
L 994.185 145.8 
L 980.325 145.8 
L 966.465 145.8 
L 952.605 145.8 
L 938.745 145.8 
L 924.885 145.8 
L 911.025 145.8 
L 897.165 145.8 
L 883.305 145.8 
L 869.445 145.8 
L 855.585 145.8 
L 841.725 145.8 
L 827.865 145.8 
L 814.005 145.8 
L 800.145 145.8 
L 786.285 145.8 
L 772.425 145.8 
L 758.565 145.8 
L 744.705 145.8 
L 730.845 145.8 
L 716.985 145.8 
L 703.125 145.8 
L 689.265 145.8 
L 675.405 145.8 
L 661.545 145.8 
L 647.685 145.8 
L 633.825 145.8 
L 619.965 145.8 
L 606.105 145.8 
L 592.245 145.8 
L 578.385 145.8 
L 564.525 145.8 
L 550.665 145.8 
L 536.805 145.8 
L 522.945 145.8 
L 509.085 145.8 
L 495.225 145.8 
L 481.365 145.8 
L 467.505 145.8 
L 453.645 145.8 
L 439.785 145.8 
L 425.925 145.8 
L 412.065 145.8 
L 398.205 145.8 
L 384.345 145.8 
L 370.485 145.8 
L 356.625 145.8 
L 342.765 145.8 
L 328.905 145.8 
L 315.045 145.8 
L 301.185 145.8 
L 287.325 145.8 
L 273.465 145.8 
L 259.605 145.8 
L 245.745 145.8 
L 231.885 145.8 
L 218.025 145.8 
L 204.165 145.8 
L 190.305 145.8 
L 176.445 145.8 
L 162.585 145.8 
L 148.725 145.8 
L 134.865 145.8 
L 121.005 145.8 
L 107.145 145.8 
L 93.285 145.8 
L 79.425 145.8 
L 65.565 145.8 
L 51.705 145.8 
L 37.845 145.8 
L 23.985 145.8 
L 10.125 145.8 
L -3.735 145.8 
L -17.595 145.8 
L -31.455 145.8 
L -45.315 145.8 
L -59.175 145.8 
L -73.035 145.8 
L -86.895 145.8 
L -100.755 145.8 
L -114.615 145.8 
L -128.475 145.8 
L -142.335 145.8 
L -156.195 145.8 
L -170.055 145.8 
L -183.915 145.8 
L -197.775 145.8 
L -211.635 145.8 
L -225.495 145.8 
L -239.355 145.8 
L -253.215 145.8 
L -267.075 145.8 
L -280.935 145.8 
L -294.795 145.8 
L -308.655 145.8 
L -322.515 145.8 
L -336.375 145.8 
L -350.235 145.8 
L -364.095 145.8 
L -377.955 145.8 
L -391.815 145.8 
L -405.675 145.8 
L -419.535 145.8 
L -433.395 145.8 
L -447.255 145.8 
L -461.115 145.8 
L -474.975 145.8 
L -488.835 145.8 
L -502.695 145.8 
L -516.555 145.8 
L -530.415 145.8 
L -544.275 145.8 
L -558.135 145.8 
L -571.995 145.8 
L -585.855 145.8 
L -599.715 145.8 
L -613.575 145.8 
z
" style="fill:#c7c7c7;"/>
    <path clip-path="url(#pea9d488be9)" d="M -613.575 145.8 
L -599.715 145.8 
L -585.855 145.8 
L -571.995 145.8 
L -558.135 145.8 
L -544.275 145.8 
L -530.415 145.8 
L -516.555 145.8 
L -502.695 145.8 
L -488.835 145.8 
L -474.975 145.8 
L -461.115 145.8 
L -447.255 145.8 
L -433.395 145.8 
L -419.535 145.8 
L -405.675 145.8 
L -391.815 145.8 
L -377.955 145.8 
L -364.095 145.8 
L -350.235 145.8 
L -336.375 145.8 
L -322.515 145.8 
L -308.655 145.8 
L -294.795 145.8 
L -280.935 145.8 
L -267.075 145.8 
L -253.215 145.8 
L -239.355 145.8 
L -225.495 145.8 
L -211.635 145.8 
L -197.775 145.8 
L -183.915 145.8 
L -170.055 145.8 
L -156.195 145.8 
L -142.335 145.8 
L -128.475 145.8 
L -114.615 145.8 
L -100.755 145.8 
L -86.895 145.8 
L -73.035 145.8 
L -59.175 145.8 
L -45.315 145.8 
L -31.455 145.8 
L -17.595 145.8 
L -3.735 145.8 
L 10.125 145.8 
L 23.985 145.8 
L 37.845 145.8 
L 51.705 145.8 
L 65.565 145.8 
L 79.425 145.8 
L 93.285 145.8 
L 107.145 145.8 
L 121.005 145.8 
L 134.865 145.8 
L 148.725 145.8 
L 162.585 145.8 
L 176.445 145.8 
L 190.305 145.8 
L 204.165 145.8 
L 218.025 145.8 
L 231.885 145.8 
L 245.745 145.8 
L 259.605 145.8 
L 273.465 145.8 
L 287.325 145.8 
L 301.185 145.8 
L 315.045 145.8 
L 328.905 145.8 
L 342.765 145.8 
L 356.625 145.8 
L 370.485 145.8 
L 384.345 145.8 
L 398.205 145.8 
L 412.065 145.8 
L 425.925 145.8 
L 439.785 145.8 
L 453.645 145.8 
L 467.505 145.8 
L 481.365 145.8 
L 495.225 145.8 
L 509.085 145.8 
L 522.945 145.8 
L 536.805 145.8 
L 550.665 145.8 
L 564.525 145.8 
L 578.385 145.8 
L 592.245 145.8 
L 606.105 145.8 
L 619.965 145.8 
L 633.825 145.8 
L 647.685 145.8 
L 661.545 145.8 
L 675.405 145.8 
L 689.265 145.8 
L 703.125 145.8 
L 716.985 145.8 
L 730.845 145.8 
L 744.705 145.8 
L 758.565 145.8 
L 772.425 145.8 
L 786.285 145.8 
L 800.145 145.8 
L 814.005 145.8 
L 827.865 145.8 
L 841.725 145.8 
L 855.585 145.8 
L 869.445 145.8 
L 883.305 145.8 
L 897.165 145.8 
L 911.025 145.8 
L 924.885 145.8 
L 938.745 145.8 
L 952.605 145.8 
L 966.465 145.8 
L 980.325 145.8 
L 994.185 145.8 
L 1008.045 145.8 
L 1021.905 145.8 
L 1035.765 145.8 
L 1049.625 145.8 
L 1063.485 145.8 
L 1077.345 145.8 
L 1091.205 145.8 
L 1105.065 145.8 
L 1118.925 145.8 
L 1132.785 145.8 
L 1146.645 145.8 
L 1160.505 145.8 
L 1174.365 145.8 
L 1188.225 145.8 
L 1202.085 145.8 
L 1215.945 145.8 
L 1229.805 145.8 
L 1243.665 145.8 
L 1257.525 145.8 
L 1271.385 145.8 
L 1285.245 145.8 
L 1299.105 145.8 
L 1312.965 145.8 
L 1326.825 145.8 
L 1340.685 145.8 
L 1354.545 145.8 
L 1368.405 145.8 
L 1382.265 145.8 
L 1396.125 145.8 
L 1409.985 145.8 
L 1423.845 145.8 
L 1437.705 145.8 
L 1451.565 145.8 
L 1465.425 145.8 
L 1479.285 145.8 
L 1493.145 145.8 
L 1507.005 145.8 
L 1520.865 145.8 
L 1534.725 145.8 
L 1548.585 145.8 
L 1562.445 145.8 
L 1576.305 145.8 
L 1590.165 145.8 
L 1604.025 145.8 
L 1617.885 145.8 
L 1631.745 145.8 
L 1645.605 145.8 
L 1659.465 145.8 
L 1673.325 145.8 
L 1687.185 145.8 
L 1701.045 145.8 
L 1714.905 145.8 
L 1728.765 145.8 
L 1742.625 145.8 
L 1756.485 145.8 
L 1770.345 145.8 
L 1784.205 145.8 
L 1798.065 145.8 
L 1811.925 145.8 
L 1825.785 145.8 
L 1839.645 145.8 
L 1853.505 145.8 
L 1867.365 145.8 
L 1881.225 145.8 
L 1895.085 145.8 
L 1908.945 145.8 
L 1922.805 145.8 
L 1936.665 145.8 
L 1950.525 145.8 
L 1964.385 145.8 
L 1978.245 145.8 
L 1992.105 145.8 
L 2005.965 145.8 
L 2019.825 145.8 
L 2033.685 145.8 
L 2047.545 145.8 
L 2061.405 145.8 
L 2075.265 145.8 
L 2089.125 145.8 
L 2102.985 145.8 
L 2116.845 145.8 
L 2130.705 145.8 
L 2144.565 145.8 
L 2158.425 145.8 
L 2172.285 145.8 
L 2186.145 145.8 
L 2200.005 145.8 
L 2213.865 145.8 
L 2227.725 145.8 
L 2241.585 145.8 
L 2255.445 145.8 
L 2269.305 145.8 
L 2283.165 145.8 
L 2283.165 7.2 
L 2269.305 7.2 
L 2255.445 7.2 
L 2241.585 7.2 
L 2227.725 7.2 
L 2213.865 7.2 
L 2200.005 7.2 
L 2186.145 7.2 
L 2172.285 7.2 
L 2158.425 7.2 
L 2144.565 7.2 
L 2130.705 7.2 
L 2116.845 7.2 
L 2102.985 7.2 
L 2089.125 7.2 
L 2075.265 7.2 
L 2061.405 7.2 
L 2047.545 7.2 
L 2033.685 7.2 
L 2019.825 7.2 
L 2005.965 7.2 
L 1992.105 7.2 
L 1978.245 7.2 
L 1964.385 7.2 
L 1950.525 7.2 
L 1936.665 7.2 
L 1922.805 7.2 
L 1908.945 7.2 
L 1895.085 7.2 
L 1881.225 7.2 
L 1867.365 7.2 
L 1853.505 7.2 
L 1839.645 7.2 
L 1825.785 7.2 
L 1811.925 7.2 
L 1798.065 7.2 
L 1784.205 7.2 
L 1770.345 7.2 
L 1756.485 7.2 
L 1742.625 7.2 
L 1728.765 7.2 
L 1714.905 7.2 
L 1701.045 7.2 
L 1687.185 7.2 
L 1673.325 7.2 
L 1659.465 7.2 
L 1645.605 7.2 
L 1631.745 7.2 
L 1617.885 7.2 
L 1604.025 7.2 
L 1590.165 7.2 
L 1576.305 7.2 
L 1562.445 7.2 
L 1548.585 7.2 
L 1534.725 7.2 
L 1520.865 7.2 
L 1507.005 7.2 
L 1493.145 7.2 
L 1479.285 7.2 
L 1465.425 7.2 
L 1451.565 7.2 
L 1437.705 7.2 
L 1423.845 7.2 
L 1409.985 7.2 
L 1396.125 7.2 
L 1382.265 7.2 
L 1368.405 7.2 
L 1354.545 7.2 
L 1340.685 7.2 
L 1326.825 7.2 
L 1312.965 7.2 
L 1299.105 7.2 
L 1285.245 7.2 
L 1271.385 7.2 
L 1257.525 7.2 
L 1243.665 7.2 
L 1229.805 7.2 
L 1215.945 7.2 
L 1202.085 7.2 
L 1188.225 7.2 
L 1174.365 7.2 
L 1160.505 7.2 
L 1146.645 7.2 
L 1132.785 7.2 
L 1118.925 7.2 
L 1105.065 7.2 
L 1091.205 7.2 
L 1077.345 7.2 
L 1063.485 7.2 
L 1049.625 7.2 
L 1035.765 7.2 
L 1021.905 7.2 
L 1008.045 7.2 
L 994.185 7.2 
L 980.325 7.2 
L 966.465 7.2 
L 952.605 7.2 
L 938.745 7.2 
L 924.885 7.2 
L 911.025 7.2 
L 897.165 7.2 
L 883.305 7.2 
L 869.445 7.2 
L 855.585 7.2 
L 841.725 7.2 
L 827.865 7.2 
L 814.005 7.2 
L 800.145 7.2 
L 786.285 7.2 
L 772.425 7.2 
L 758.565 7.2 
L 744.705 7.2 
L 730.845 7.2 
L 716.985 7.2 
L 703.125 7.2 
L 689.265 7.2 
L 675.405 7.2 
L 661.545 7.2 
L 647.685 7.2 
L 633.825 7.2 
L 619.965 7.2 
L 606.105 7.2 
L 592.245 7.2 
L 578.385 7.2 
L 564.525 7.2 
L 550.665 7.2 
L 536.805 7.2 
L 522.945 7.2 
L 509.085 7.2 
L 495.225 7.2 
L 481.365 7.2 
L 467.505 7.2 
L 453.645 7.2 
L 439.785 7.2 
L 425.925 7.2 
L 412.065 7.2 
L 398.205 7.2 
L 384.345 7.2 
L 370.485 7.2 
L 356.625 7.2 
L 342.765 7.2 
L 328.905 7.2 
L 315.045 7.2 
L 301.185 7.2 
L 287.325 7.2 
L 273.465 7.2 
L 259.605 7.2 
L 245.745 7.2 
L 231.885 7.2 
L 218.025 7.2 
L 204.165 7.2 
L 190.305 7.2 
L 176.445 7.2 
L 162.585 7.2 
L 148.725 7.2 
L 134.865 7.2 
L 121.005 7.2 
L 107.145 7.2 
L 93.285 7.2 
L 79.425 7.2 
L 65.565 7.2 
L 51.705 7.2 
L 37.845 7.2 
L 23.985 7.2 
L 10.125 7.2 
L -3.735 7.2 
L -17.595 7.2 
L -31.455 7.2 
L -45.315 7.2 
L -59.175 7.2 
L -73.035 7.2 
L -86.895 7.2 
L -100.755 7.2 
L -114.615 7.2 
L -128.475 7.2 
L -142.335 7.2 
L -156.195 7.2 
L -170.055 7.2 
L -183.915 7.2 
L -197.775 7.2 
L -211.635 7.2 
L -225.495 7.2 
L -239.355 7.2 
L -253.215 7.2 
L -267.075 7.2 
L -280.935 7.2 
L -294.795 7.2 
L -308.655 7.2 
L -322.515 7.2 
L -336.375 7.2 
L -350.235 7.2 
L -364.095 7.2 
L -377.955 7.2 
L -391.815 7.2 
L -405.675 7.2 
L -419.535 7.2 
L -433.395 7.2 
L -447.255 7.2 
L -461.115 7.2 
L -474.975 7.2 
L -488.835 7.2 
L -502.695 7.2 
L -516.555 7.2 
L -530.415 7.2 
L -544.275 7.2 
L -558.135 7.2 
L -571.995 7.2 
L -585.855 7.2 
L -599.715 7.2 
L -613.575 7.2 
z
" style="fill:#c7c7c7;"/>
   </g>
   <g id="PathCollection_1"/>
   <g id="PathCollection_2">
    <path clip-path="url(#pea9d488be9)" d="M -613.575 225.495 
L -592.785 215.1 
L -613.575 204.705 
z
" style="fill:#dddddd;stroke:#dddddd;stroke-width:0.5;"/>
    <path clip-path="url(#pea9d488be9)" d="M -613.575 86.895 
L -592.785 76.5 
L -613.575 66.105 
z
" style="fill:#dddddd;stroke:#dddddd;stroke-width:0.5;"/>
   </g>
   <g id="PathCollection_3">
    <path clip-path="url(#pea9d488be9)" d="M -1 284.4 
L 922.15 284.4 
L 922.15 284.4 
" style="fill:none;stroke:#555555;stroke-width:0.5;"/>
    <path clip-path="url(#pea9d488be9)" d="M -1 145.8 
L 922.15 145.8 
L 922.15 145.8 
" style="fill:none;stroke:#555555;stroke-width:0.5;"/>
   </g>
   <g id="PathCollection_4">
    <path clip-path="url(#pea9d488be9)" d="M -1 145.8 
L 922.15 145.8 
L 922.15 145.8 
" style="fill:none;stroke:#555555;stroke-width:0.5;"/>
    <path clip-path="url(#pea9d488be9)" d="M -1 7.2 
L 922.15 7.2 
L 922.15 7.2 
" style="fill:none;stroke:#555555;stroke-width:0.5;"/>
   </g>
   <g id="PatchCollection_1">
    <path clip-path="url(#pea9d488be9)" d="M 79.425 158.735954 
C 83.100715 158.735954 86.626377 157.275577 89.2255 154.676454 
C 91.824623 152.077331 93.285 148.551669 93.285 144.875954 
C 93.285 141.200239 91.824623 137.674577 89.2255 135.075454 
C 86.626377 132.476331 83.100715 131.015954 79.425 131.015954 
C 75.749285 131.015954 72.223623 132.476331 69.6245 135.075454 
C 67.025377 137.674577 65.565 141.200239 65.565 144.875954 
C 65.565 148.551669 67.025377 152.077331 69.6245 154.676454 
C 72.223623 157.275577 75.749285 158.735954 79.425 158.735954 
z
" style="fill:#008000;stroke:#008000;"/>
    <path clip-path="url(#pea9d488be9)" d="M 191.668548 142.630783 
L 142.115144 160.257311 
L 141.893399 149.171528 
L 79.535873 150.418845 
L 79.314127 139.333063 
L 141.671654 138.085746 
L 141.449909 126.999963 
z
" style="fill:#008000;stroke:#008000;"/>
    <path clip-path="url(#pea9d488be9)" d="M 772.425 170.748 
L 772.425 120.852 
L 841.725 120.852 
L 841.725 170.748 
z
" style="fill:#f1b514;stroke:#302404;stroke-width:0.5;"/>
    <path clip-path="url(#pea9d488be9)" d="M 270.1386 131.94 
L 270.1386 62.64 
L 308.9466 62.64 
L 308.9466 131.94 
z
" style="fill:#d95558;stroke:#831d20;stroke-width:0.5;"/>
    <path clip-path="url(#pea9d488be9)" d="M 270.1386 284.4 
L 270.1386 173.52 
L 308.9466 173.52 
L 308.9466 284.4 
z
" style="fill:#d95558;stroke:#831d20;stroke-width:0.5;"/>
    <path clip-path="url(#pea9d488be9)" d="M 547.3386 76.5 
L 547.3386 7.2 
L 586.1466 7.2 
L 586.1466 76.5 
z
" style="fill:#d95558;stroke:#831d20;stroke-width:0.5;"/>
    <path clip-path="url(#pea9d488be9)" d="M 547.3386 180.45 
L 547.3386 111.15 
L 586.1466 111.15 
L 586.1466 180.45 
z
" style="fill:#d95558;stroke:#831d20;stroke-width:0.5;"/>
    <path clip-path="url(#pea9d488be9)" d="M 547.3386 284.4 
L 547.3386 215.1 
L 586.1466 215.1 
L 586.1466 284.4 
z
" style="fill:#d95558;stroke:#831d20;stroke-width:0.5;"/>
    <path clip-path="url(#pea9d488be9)" d="M 720.5886 96.925693 
L 720.5886 78.250307 
L 745.5366 78.250307 
L 745.5366 96.925693 
z
" style="fill:#d95558;stroke:#831d20;stroke-width:0.5;"/>
    <path clip-path="url(#pea9d488be9)" d="M 79.425 151.805954 
C 81.262857 151.805954 83.025689 151.075765 84.32525 149.776204 
C 85.624811 148.476642 86.355 146.713811 86.355 144.875954 
C 86.355 143.038096 85.624811 141.275265 84.32525 139.975704 
C 83.025689 138.676142 81.262857 137.945954 79.425 137.945954 
C 77.587143 137.945954 75.824311 138.676142 74.52475 139.975704 
C 73.225189 141.275265 72.495 143.038096 72.495 144.875954 
C 72.495 146.713811 73.225189 148.476642 74.52475 149.776204 
C 75.824311 151.075765 77.587143 151.805954 79.425 151.805954 
z
" style="fill:#1d7eea;stroke:#00478f;stroke-width:0.5;"/>
   </g>
   <g id="line2d_1">
    <path clip-path="url(#pea9d488be9)" d="M 79.425 144.875954 
" style="fill:none;stroke:#ffd700;stroke-linecap:square;stroke-width:2;"/>
   </g>
   <g id="line2d_2">
    <path clip-path="url(#pea9d488be9)" d="M 79.425 144.875954 
L 91.899 144.626474 
L 104.374362 144.464094 
L 116.850157 144.563317 
L 129.314442 145.099305 
L 141.736752 146.24746 
" style="fill:none;stroke:#ffd700;stroke-linecap:square;stroke-width:2;"/>
   </g>
   <g id="line2d_3">
    <path clip-path="url(#pea9d488be9)" d="M 79.425 144.875954 
L 91.899 144.626474 
L 104.373 144.376994 
L 116.847 144.127514 
L 129.321 143.878034 
L 141.795 143.628554 
" style="fill:none;stroke:#ffd700;stroke-linecap:square;stroke-width:2;"/>
   </g>
   <g id="line2d_4">
    <path clip-path="url(#pea9d488be9)" d="M 141.795 143.628554 
L 154.269 143.379074 
L 166.744362 143.216694 
L 179.220157 143.315917 
L 191.684442 143.851905 
L 204.106752 145.00006 
" style="fill:none;stroke:#ffd700;stroke-linecap:square;stroke-width:2;"/>
   </g>
   <g id="line2d_5">
    <path clip-path="url(#pea9d488be9)" d="M 204.106752 145.00006 
L 216.427969 146.933874 
L 228.602287 149.646032 
L 240.629051 152.953662 
L 252.532989 156.680498 
L 264.356388 160.656176 
" style="fill:none;stroke:#ffd700;stroke-linecap:square;stroke-width:2;"/>
   </g>
   <g id="line2d_6">
    <path clip-path="url(#pea9d488be9)" d="M 141.795 143.628554 
L 154.269 143.379074 
L 166.743 143.129594 
L 179.217 142.880114 
L 191.691 142.630634 
L 204.165 142.381154 
" style="fill:none;stroke:#ffd700;stroke-linecap:square;stroke-width:2;"/>
   </g>
   <g id="line2d_7">
    <path clip-path="url(#pea9d488be9)" d="M 204.165 142.381154 
L 216.639 142.131674 
L 229.114362 141.969294 
L 241.590157 142.068517 
L 254.054442 142.604505 
L 266.476752 143.75266 
" style="fill:none;stroke:#ffd700;stroke-linecap:square;stroke-width:2;"/>
   </g>
   <g id="line2d_8">
    <path clip-path="url(#pea9d488be9)" d="M 266.476752 143.75266 
L 278.797969 145.686474 
L 290.972287 148.398632 
L 302.999051 151.706262 
L 314.902989 155.433098 
L 326.726388 159.408776 
" style="fill:none;stroke:#ffd700;stroke-linecap:square;stroke-width:2;"/>
   </g>
   <g id="line2d_9">
    <path clip-path="url(#pea9d488be9)" d="M 266.476752 143.75266 
L 278.797969 145.686474 
L 290.951678 148.486359 
L 302.877083 152.13831 
L 314.514526 156.624057 
L 325.805793 161.921161 
" style="fill:none;stroke:#ffd700;stroke-linecap:square;stroke-width:2;"/>
   </g>
   <g id="line2d_10">
    <path clip-path="url(#pea9d488be9)" d="M 204.165 142.381154 
L 216.639 142.131674 
L 229.113 141.882194 
L 241.587 141.632714 
L 254.061 141.383234 
L 266.535 141.133754 
" style="fill:none;stroke:#ffd700;stroke-linecap:square;stroke-width:2;"/>
   </g>
   <g id="line2d_11">
    <path clip-path="url(#pea9d488be9)" d="M 266.535 141.133754 
L 279.009 140.884274 
L 291.484362 140.721894 
L 303.960157 140.821117 
L 316.424442 141.357105 
L 328.846752 142.50526 
" style="fill:none;stroke:#ffd700;stroke-linecap:square;stroke-width:2;"/>
   </g>
   <g id="line2d_12">
    <path clip-path="url(#pea9d488be9)" d="M 328.846752 142.50526 
L 341.167969 144.439074 
L 353.342287 147.151232 
L 365.369051 150.458862 
L 377.272989 154.185698 
L 389.096388 158.161376 
" style="fill:none;stroke:#ffd700;stroke-linecap:square;stroke-width:2;"/>
   </g>
   <g id="line2d_13">
    <path clip-path="url(#pea9d488be9)" d="M 328.846752 142.50526 
L 341.167969 144.439074 
L 353.321678 147.238959 
L 365.247083 150.89091 
L 376.884526 155.376657 
L 388.175793 160.673761 
" style="fill:none;stroke:#ffd700;stroke-linecap:square;stroke-width:2;"/>
   </g>
   <g id="line2d_14">
    <path clip-path="url(#pea9d488be9)" d="M 266.535 141.133754 
L 279.009 140.884274 
L 291.483 140.634794 
L 303.957 140.385314 
L 316.431 140.135834 
L 328.905 139.886354 
" style="fill:none;stroke:#ffd700;stroke-linecap:square;stroke-width:2;"/>
   </g>
   <g id="line2d_15">
    <path clip-path="url(#pea9d488be9)" d="M 328.905 139.886354 
L 341.379 139.636874 
L 353.854362 139.474494 
L 366.330157 139.573717 
L 378.794442 140.109705 
L 391.216752 141.25786 
" style="fill:none;stroke:#ffd700;stroke-linecap:square;stroke-width:2;"/>
   </g>
   <g id="line2d_16">
    <path clip-path="url(#pea9d488be9)" d="M 391.216752 141.25786 
L 403.537969 143.191674 
L 415.712287 145.903832 
L 427.739051 149.211462 
L 439.642989 152.938298 
L 451.466388 156.913976 
" style="fill:none;stroke:#ffd700;stroke-linecap:square;stroke-width:2;"/>
   </g>
   <g id="line2d_17">
    <path clip-path="url(#pea9d488be9)" d="M 391.216752 141.25786 
L 403.537969 143.191674 
L 415.691678 145.991559 
L 427.617083 149.64351 
L 439.254526 154.129257 
L 450.545793 159.426361 
" style="fill:none;stroke:#ffd700;stroke-linecap:square;stroke-width:2;"/>
   </g>
   <g id="line2d_18">
    <path clip-path="url(#pea9d488be9)" d="M 451.466388 156.913976 
L 463.261813 160.972133 
L 475.085212 164.947811 
L 486.989151 168.674647 
L 499.015914 171.982277 
L 511.190232 174.694435 
" style="fill:none;stroke:#ffd700;stroke-linecap:square;stroke-width:2;"/>
   </g>
   <g id="line2d_19">
    <path clip-path="url(#pea9d488be9)" d="M 511.190232 174.694435 
L 523.511449 176.62825 
L 535.931279 177.776142 
L 548.393073 178.311989 
L 560.866374 178.411159 
L 573.339241 178.248778 
" style="fill:none;stroke:#ffd700;stroke-dasharray:7.4,3.2;stroke-dashoffset:0;stroke-width:2;"/>
   </g>
   <g id="line2d_20">
    <path clip-path="url(#pea9d488be9)" d="M 511.190232 174.694435 
L 523.511449 176.62825 
L 535.938536 177.686319 
L 548.409329 177.86335 
L 560.861443 177.158457 
L 573.232587 175.575167 
" style="fill:none;stroke:#ffd700;stroke-dasharray:7.4,3.2;stroke-dashoffset:0;stroke-width:2;"/>
   </g>
   <g id="line2d_21">
    <path clip-path="url(#pea9d488be9)" d="M 328.905 139.886354 
L 341.379 139.636874 
L 353.853 139.387394 
L 366.327 139.137914 
L 378.801 138.888434 
L 391.275 138.638954 
" style="fill:none;stroke:#ffd700;stroke-linecap:square;stroke-width:2;"/>
   </g>
   <g id="line2d_22">
    <path clip-path="url(#pea9d488be9)" d="M 391.275 138.638954 
L 403.749 138.389474 
L 416.224362 138.227094 
L 428.700157 138.326317 
L 441.164442 138.862305 
L 453.586752 140.01046 
" style="fill:none;stroke:#ffd700;stroke-linecap:square;stroke-width:2;"/>
   </g>
   <g id="line2d_23">
    <path clip-path="url(#pea9d488be9)" d="M 453.586752 140.01046 
L 465.907969 141.944274 
L 478.082287 144.656432 
L 490.109051 147.964062 
L 502.012989 151.690898 
L 513.836388 155.666576 
" style="fill:none;stroke:#ffd700;stroke-linecap:square;stroke-width:2;"/>
   </g>
   <g id="line2d_24">
    <path clip-path="url(#pea9d488be9)" d="M 513.836388 155.666576 
L 525.631813 159.724733 
L 537.427238 163.782889 
L 549.222662 167.841046 
L 561.018087 171.899202 
L 572.813511 175.957359 
" style="fill:none;stroke:#ffd700;stroke-dasharray:7.4,3.2;stroke-dashoffset:0;stroke-width:2;"/>
   </g>
   <g id="line2d_25">
    <path clip-path="url(#pea9d488be9)" d="M 513.836388 155.666576 
L 525.631813 159.724733 
L 537.455212 163.700411 
L 549.359151 167.427247 
L 561.385914 170.734877 
L 573.560232 173.447035 
" style="fill:none;stroke:#ffd700;stroke-dasharray:7.4,3.2;stroke-dashoffset:0;stroke-width:2;"/>
   </g>
   <g id="line2d_26">
    <path clip-path="url(#pea9d488be9)" d="M 513.836388 155.666576 
L 525.631813 159.724733 
L 537.398544 163.86512 
L 549.075664 168.251229 
L 560.591687 173.043376 
L 571.857658 178.395732 
" style="fill:none;stroke:#ffd700;stroke-dasharray:7.4,3.2;stroke-dashoffset:0;stroke-width:2;"/>
   </g>
   <g id="line2d_27">
    <path clip-path="url(#pea9d488be9)" d="M 453.586752 140.01046 
L 465.907969 141.944274 
L 478.061678 144.744159 
L 489.987083 148.39611 
L 501.624526 152.881857 
L 512.915793 158.178961 
" style="fill:none;stroke:#ffd700;stroke-linecap:square;stroke-width:2;"/>
   </g>
   <g id="line2d_28">
    <path clip-path="url(#pea9d488be9)" d="M 391.275 138.638954 
L 403.749 138.389474 
L 416.223 138.139994 
L 428.697 137.890514 
L 441.171 137.641034 
L 453.645 137.391554 
" style="fill:none;stroke:#ffd700;stroke-linecap:square;stroke-width:2;"/>
   </g>
   <g id="line2d_29">
    <path clip-path="url(#pea9d488be9)" d="M 453.645 137.391554 
L 466.119 137.142074 
L 478.594362 136.979694 
L 491.070157 137.078917 
L 503.534442 137.614905 
L 515.956752 138.76306 
" style="fill:none;stroke:#ffd700;stroke-linecap:square;stroke-width:2;"/>
   </g>
   <g id="line2d_30">
    <path clip-path="url(#pea9d488be9)" d="M 515.956752 138.76306 
L 528.277969 140.696874 
L 540.452287 143.409032 
L 552.479051 146.716662 
L 564.382989 150.443498 
L 576.206388 154.419176 
" style="fill:none;stroke:#ffd700;stroke-dasharray:7.4,3.2;stroke-dashoffset:0;stroke-width:2;"/>
   </g>
   <g id="line2d_31">
    <path clip-path="url(#pea9d488be9)" d="M 515.956752 138.76306 
L 528.277969 140.696874 
L 540.431678 143.496759 
L 552.357083 147.14871 
L 563.994526 151.634457 
L 575.285793 156.931561 
" style="fill:none;stroke:#ffd700;stroke-dasharray:7.4,3.2;stroke-dashoffset:0;stroke-width:2;"/>
   </g>
   <g id="line2d_32">
    <path clip-path="url(#pea9d488be9)" d="M 453.645 137.391554 
L 466.119 137.142074 
L 478.593 136.892594 
L 491.067 136.643114 
L 503.541 136.393634 
L 516.015 136.144154 
" style="fill:none;stroke:#ffd700;stroke-linecap:square;stroke-width:2;"/>
   </g>
   <g id="line2d_33">
    <path clip-path="url(#pea9d488be9)" d="M 516.015 136.144154 
L 528.489 135.894674 
L 540.963 135.645194 
L 553.437 135.395714 
L 565.911 135.146234 
L 578.385 134.896754 
" style="fill:none;stroke:#ffd700;stroke-dasharray:7.4,3.2;stroke-dashoffset:0;stroke-width:2;"/>
   </g>
   <g id="line2d_34">
    <path clip-path="url(#pea9d488be9)" d="M 516.015 136.144154 
L 528.489 135.894674 
L 540.960878 135.558109 
L 553.422729 134.960133 
L 565.855616 133.926202 
L 578.222085 132.282271 
" style="fill:none;stroke:#ffd700;stroke-dasharray:7.4,3.2;stroke-dashoffset:0;stroke-width:2;"/>
   </g>
   <g id="line2d_35">
    <path clip-path="url(#pea9d488be9)" d="M 516.015 136.144154 
L 528.489 135.894674 
L 540.964362 135.732294 
L 553.440157 135.831517 
L 565.904442 136.367505 
L 578.326752 137.51566 
" style="fill:none;stroke:#ffd700;stroke-dasharray:7.4,3.2;stroke-dashoffset:0;stroke-width:2;"/>
   </g>
   <g id="line2d_36">
    <path clip-path="url(#pea9d488be9)" d="M 453.645 137.391554 
L 466.119 137.142074 
L 478.590878 136.805509 
L 491.052729 136.207533 
L 503.485616 135.173602 
L 515.852085 133.529671 
" style="fill:none;stroke:#ffd700;stroke-linecap:square;stroke-width:2;"/>
   </g>
   <g id="line2d_37">
    <path clip-path="url(#pea9d488be9)" d="M 515.852085 133.529671 
L 528.086113 131.104687 
L 540.142236 127.907855 
L 552.02711 124.121928 
L 563.772493 119.922043 
L 575.42745 115.476735 
" style="fill:none;stroke:#ffd700;stroke-dasharray:7.4,3.2;stroke-dashoffset:0;stroke-width:2;"/>
   </g>
   <g id="line2d_38">
    <path clip-path="url(#pea9d488be9)" d="M 515.852085 133.529671 
L 528.086113 131.104687 
L 540.118136 127.821022 
L 551.887962 123.695104 
L 563.336714 118.747571 
L 574.407122 113.003174 
" style="fill:none;stroke:#ffd700;stroke-dasharray:7.4,3.2;stroke-dashoffset:0;stroke-width:2;"/>
   </g>
   <g id="line2d_39">
    <path clip-path="url(#pea9d488be9)" d="M 391.275 138.638954 
L 403.749 138.389474 
L 416.220878 138.052909 
L 428.682729 137.454933 
L 441.115616 136.421002 
L 453.482085 134.777071 
" style="fill:none;stroke:#ffd700;stroke-linecap:square;stroke-width:2;"/>
   </g>
   <g id="line2d_40">
    <path clip-path="url(#pea9d488be9)" d="M 453.482085 134.777071 
L 465.716113 132.352087 
L 477.772236 129.155255 
L 489.65711 125.369328 
L 501.402493 121.169443 
L 513.05745 116.724135 
" style="fill:none;stroke:#ffd700;stroke-linecap:square;stroke-width:2;"/>
   </g>
   <g id="line2d_41">
    <path clip-path="url(#pea9d488be9)" d="M 453.482085 134.777071 
L 465.716113 132.352087 
L 477.748136 129.068422 
L 489.517962 124.942504 
L 500.966714 119.994971 
L 512.037122 114.250574 
" style="fill:none;stroke:#ffd700;stroke-linecap:square;stroke-width:2;"/>
   </g>
   <g id="line2d_42">
    <path clip-path="url(#pea9d488be9)" d="M 512.037122 114.250574 
L 522.673804 107.738049 
L 532.823554 100.489973 
L 542.435596 92.542605 
L 551.461848 83.935702 
L 559.857156 74.712318 
" style="fill:none;stroke:#ffd700;stroke-dasharray:7.4,3.2;stroke-dashoffset:0;stroke-width:2;"/>
   </g>
   <g id="line2d_43">
    <path clip-path="url(#pea9d488be9)" d="M 451.466388 156.913976 
L 463.261813 160.972133 
L 475.057238 165.030289 
L 486.852662 169.088446 
L 498.648087 173.146602 
L 510.443511 177.204759 
" style="fill:none;stroke:#ffd700;stroke-linecap:square;stroke-width:2;"/>
   </g>
   <g id="line2d_44">
    <path clip-path="url(#pea9d488be9)" d="M 328.905 139.886354 
L 341.379 139.636874 
L 353.850878 139.300309 
L 366.312729 138.702333 
L 378.745616 137.668402 
L 391.112085 136.024471 
" style="fill:none;stroke:#ffd700;stroke-linecap:square;stroke-width:2;"/>
   </g>
   <g id="line2d_45">
    <path clip-path="url(#pea9d488be9)" d="M 451.466388 156.913976 
L 463.261813 160.972133 
L 475.028544 165.11252 
L 486.705664 169.498629 
L 498.221687 174.290776 
L 509.487658 179.643132 
" style="fill:none;stroke:#ffd700;stroke-linecap:square;stroke-width:2;"/>
   </g>
   <g id="line2d_46">
    <path clip-path="url(#pea9d488be9)" d="M 509.487658 179.643132 
L 520.390547 185.699454 
L 530.838082 192.511284 
L 540.778 200.044545 
L 550.160579 208.261554 
L 558.938882 217.121205 
" style="fill:none;stroke:#ffd700;stroke-dasharray:7.4,3.2;stroke-dashoffset:0;stroke-width:2;"/>
   </g>
   <g id="line2d_47">
    <path clip-path="url(#pea9d488be9)" d="M 513.05745 116.724135 
L 524.681156 112.197533 
L 536.336113 107.752225 
L 548.081496 103.55234 
L 559.966369 99.766413 
L 572.022492 96.569582 
" style="fill:none;stroke:#ffd700;stroke-linecap:square;stroke-width:2;"/>
   </g>
   <g id="line2d_48">
    <path clip-path="url(#pea9d488be9)" d="M 572.022492 96.569582 
L 584.256521 94.144597 
L 596.631357 92.590423 
L 609.085095 91.914835 
L 621.555436 92.121212 
L 633.98 93.208522 
" style="fill:none;stroke:#ffd700;stroke-linecap:square;stroke-width:2;"/>
   </g>
   <g id="line2d_49">
    <path clip-path="url(#pea9d488be9)" d="M 633.98 93.208522 
L 646.296631 95.171325 
L 658.443718 97.999803 
L 670.360496 101.679807 
L 681.987351 106.192927 
L 693.266121 111.516587 
" style="fill:none;stroke:#ffd700;stroke-linecap:square;stroke-width:2;"/>
   </g>
   <g id="line2d_50">
    <path clip-path="url(#pea9d488be9)" d="M 693.266121 111.516587 
L 704.140385 117.624155 
L 714.605642 124.41004 
L 724.725024 131.702609 
L 734.583155 139.345274 
L 744.279053 147.193097 
" style="fill:none;stroke:#ffd700;stroke-linecap:square;stroke-width:2;"/>
   </g>
   <g id="line2d_51">
    <path clip-path="url(#pea9d488be9)" d="M 693.266121 111.516587 
L 704.140385 117.624155 
L 714.555745 124.48508 
L 724.460099 132.06504 
L 733.803901 140.326116 
L 742.540409 149.226983 
" style="fill:none;stroke:#ffd700;stroke-linecap:square;stroke-width:2;"/>
   </g>
   <g id="line2d_52">
    <path clip-path="url(#pea9d488be9)" d="M 744.279053 147.193097 
L 753.919981 155.108474 
L 763.615879 162.956297 
L 773.47401 170.598962 
L 783.593392 177.891531 
L 794.058649 184.677416 
" style="fill:none;stroke:#ffd700;stroke-linecap:square;stroke-width:2;"/>
   </g>
   <g id="line2d_53">
    <path clip-path="url(#pea9d488be9)" d="M 744.279053 147.193097 
L 753.919981 155.108474 
L 763.615879 162.956297 
L 773.47401 170.598962 
L 783.593392 177.891531 
L 794.058649 184.677416 
" style="fill:none;stroke:#008000;stroke-linecap:square;stroke-width:3;"/>
   </g>
   <g id="line2d_54">
    <path clip-path="url(#pea9d488be9)" d="M 79.425 144.875954 
" style="fill:none;stroke:#008000;stroke-linecap:square;stroke-width:3;"/>
   </g>
   <g id="line2d_55">
    <path clip-path="url(#pea9d488be9)" d="M 79.425 144.875954 
L 91.899 144.626474 
L 104.373 144.376994 
L 116.847 144.127514 
L 129.321 143.878034 
L 141.795 143.628554 
" style="fill:none;stroke:#008000;stroke-linecap:square;stroke-width:3;"/>
   </g>
   <g id="line2d_56">
    <path clip-path="url(#pea9d488be9)" d="M 141.795 143.628554 
L 154.269 143.379074 
L 166.743 143.129594 
L 179.217 142.880114 
L 191.691 142.630634 
L 204.165 142.381154 
" style="fill:none;stroke:#008000;stroke-linecap:square;stroke-width:3;"/>
   </g>
   <g id="line2d_57">
    <path clip-path="url(#pea9d488be9)" d="M 204.165 142.381154 
L 216.639 142.131674 
L 229.113 141.882194 
L 241.587 141.632714 
L 254.061 141.383234 
L 266.535 141.133754 
" style="fill:none;stroke:#008000;stroke-linecap:square;stroke-width:3;"/>
   </g>
   <g id="line2d_58">
    <path clip-path="url(#pea9d488be9)" d="M 266.535 141.133754 
L 279.009 140.884274 
L 291.483 140.634794 
L 303.957 140.385314 
L 316.431 140.135834 
L 328.905 139.886354 
" style="fill:none;stroke:#008000;stroke-linecap:square;stroke-width:3;"/>
   </g>
   <g id="line2d_59">
    <path clip-path="url(#pea9d488be9)" d="M 328.905 139.886354 
L 341.379 139.636874 
L 353.853 139.387394 
L 366.327 139.137914 
L 378.801 138.888434 
L 391.275 138.638954 
" style="fill:none;stroke:#008000;stroke-linecap:square;stroke-width:3;"/>
   </g>
   <g id="line2d_60">
    <path clip-path="url(#pea9d488be9)" d="M 391.275 138.638954 
L 403.749 138.389474 
L 416.220878 138.052909 
L 428.682729 137.454933 
L 441.115616 136.421002 
L 453.482085 134.777071 
" style="fill:none;stroke:#008000;stroke-linecap:square;stroke-width:3;"/>
   </g>
   <g id="line2d_61">
    <path clip-path="url(#pea9d488be9)" d="M 453.482085 134.777071 
L 465.716113 132.352087 
L 477.772236 129.155255 
L 489.65711 125.369328 
L 501.402493 121.169443 
L 513.05745 116.724135 
" style="fill:none;stroke:#008000;stroke-linecap:square;stroke-width:3;"/>
   </g>
   <g id="line2d_62">
    <path clip-path="url(#pea9d488be9)" d="M 513.05745 116.724135 
L 524.681156 112.197533 
L 536.336113 107.752225 
L 548.081496 103.55234 
L 559.966369 99.766413 
L 572.022492 96.569582 
" style="fill:none;stroke:#008000;stroke-linecap:square;stroke-width:3;"/>
   </g>
   <g id="line2d_63">
    <path clip-path="url(#pea9d488be9)" d="M 572.022492 96.569582 
L 584.256521 94.144597 
L 596.631357 92.590423 
L 609.085095 91.914835 
L 621.555436 92.121212 
L 633.98 93.208522 
" style="fill:none;stroke:#008000;stroke-linecap:square;stroke-width:3;"/>
   </g>
   <g id="line2d_64">
    <path clip-path="url(#pea9d488be9)" d="M 633.98 93.208522 
L 646.296631 95.171325 
L 658.443718 97.999803 
L 670.360496 101.679807 
L 681.987351 106.192927 
L 693.266121 111.516587 
" style="fill:none;stroke:#008000;stroke-linecap:square;stroke-width:3;"/>
   </g>
   <g id="line2d_65">
    <path clip-path="url(#pea9d488be9)" d="M 693.266121 111.516587 
L 704.140385 117.624155 
L 714.605642 124.41004 
L 724.725024 131.702609 
L 734.583155 139.345274 
L 744.279053 147.193097 
" style="fill:none;stroke:#008000;stroke-linecap:square;stroke-width:3;"/>
   </g>
   <g id="line2d_66">
    <path clip-path="url(#pea9d488be9)" d="M 744.279053 147.193097 
L 753.919981 155.108474 
L 763.615879 162.956297 
L 773.47401 170.598962 
L 783.593392 177.891531 
L 794.058649 184.677416 
" style="fill:none;stroke:#008000;stroke-linecap:square;stroke-width:3;"/>
   </g>
   <g id="line2d_67">
    <path clip-path="url(#pea9d488be9)" d="M 79.425 144.875954 
" style="fill:none;stroke:#ffd700;stroke-linecap:square;stroke-width:1.5;"/>
    <defs>
     <path d="M 0 4 
C 1.060812 4 2.078319 3.578535 2.828427 2.828427 
C 3.578535 2.078319 4 1.060812 4 0 
C 4 -1.060812 3.578535 -2.078319 2.828427 -2.828427 
C 2.078319 -3.578535 1.060812 -4 0 -4 
C -1.060812 -4 -2.078319 -3.578535 -2.828427 -2.828427 
C -3.578535 -2.078319 -4 -1.060812 -4 0 
C -4 1.060812 -3.578535 2.078319 -2.828427 2.828427 
C -2.078319 3.578535 -1.060812 4 0 4 
z
" id="md49950663d" style="stroke:#ffd700;"/>
    </defs>
    <g clip-path="url(#pea9d488be9)">
     <use style="fill:#ffd700;stroke:#ffd700;" x="79.425" xlink:href="#md49950663d" y="144.875954"/>
    </g>
   </g>
   <g id="line2d_68">
    <path clip-path="url(#pea9d488be9)" d="M 141.736752 146.24746 
" style="fill:none;stroke:#ffd700;stroke-linecap:square;stroke-width:1.5;"/>
    <g clip-path="url(#pea9d488be9)">
     <use style="fill:#ffd700;stroke:#ffd700;" x="141.736752" xlink:href="#md49950663d" y="146.24746"/>
    </g>
   </g>
   <g id="line2d_69">
    <path clip-path="url(#pea9d488be9)" d="M 141.795 143.628554 
" style="fill:none;stroke:#ffd700;stroke-linecap:square;stroke-width:1.5;"/>
    <g clip-path="url(#pea9d488be9)">
     <use style="fill:#ffd700;stroke:#ffd700;" x="141.795" xlink:href="#md49950663d" y="143.628554"/>
    </g>
   </g>
   <g id="line2d_70">
    <path clip-path="url(#pea9d488be9)" d="M 204.106752 145.00006 
" style="fill:none;stroke:#ffd700;stroke-linecap:square;stroke-width:1.5;"/>
    <g clip-path="url(#pea9d488be9)">
     <use style="fill:#ffd700;stroke:#ffd700;" x="204.106752" xlink:href="#md49950663d" y="145.00006"/>
    </g>
   </g>
   <g id="line2d_71">
    <path clip-path="url(#pea9d488be9)" d="M 264.356388 160.656176 
" style="fill:none;stroke:#ffd700;stroke-linecap:square;stroke-width:1.5;"/>
    <g clip-path="url(#pea9d488be9)">
     <use style="fill:#ffd700;stroke:#ffd700;" x="264.356388" xlink:href="#md49950663d" y="160.656176"/>
    </g>
   </g>
   <g id="line2d_72">
    <path clip-path="url(#pea9d488be9)" d="M 204.165 142.381154 
" style="fill:none;stroke:#ffd700;stroke-linecap:square;stroke-width:1.5;"/>
    <g clip-path="url(#pea9d488be9)">
     <use style="fill:#ffd700;stroke:#ffd700;" x="204.165" xlink:href="#md49950663d" y="142.381154"/>
    </g>
   </g>
   <g id="line2d_73">
    <path clip-path="url(#pea9d488be9)" d="M 266.476752 143.75266 
" style="fill:none;stroke:#ffd700;stroke-linecap:square;stroke-width:1.5;"/>
    <g clip-path="url(#pea9d488be9)">
     <use style="fill:#ffd700;stroke:#ffd700;" x="266.476752" xlink:href="#md49950663d" y="143.75266"/>
    </g>
   </g>
   <g id="line2d_74">
    <path clip-path="url(#pea9d488be9)" d="M 326.726388 159.408776 
" style="fill:none;stroke:#ffd700;stroke-linecap:square;stroke-width:1.5;"/>
    <g clip-path="url(#pea9d488be9)">
     <use style="fill:#ffd700;stroke:#ffd700;" x="326.726388" xlink:href="#md49950663d" y="159.408776"/>
    </g>
   </g>
   <g id="line2d_75">
    <path clip-path="url(#pea9d488be9)" d="M 325.805793 161.921161 
" style="fill:none;stroke:#ffd700;stroke-linecap:square;stroke-width:1.5;"/>
    <g clip-path="url(#pea9d488be9)">
     <use style="fill:#ffd700;stroke:#ffd700;" x="325.805793" xlink:href="#md49950663d" y="161.921161"/>
    </g>
   </g>
   <g id="line2d_76">
    <path clip-path="url(#pea9d488be9)" d="M 266.535 141.133754 
" style="fill:none;stroke:#ffd700;stroke-linecap:square;stroke-width:1.5;"/>
    <g clip-path="url(#pea9d488be9)">
     <use style="fill:#ffd700;stroke:#ffd700;" x="266.535" xlink:href="#md49950663d" y="141.133754"/>
    </g>
   </g>
   <g id="line2d_77">
    <path clip-path="url(#pea9d488be9)" d="M 328.846752 142.50526 
" style="fill:none;stroke:#ffd700;stroke-linecap:square;stroke-width:1.5;"/>
    <g clip-path="url(#pea9d488be9)">
     <use style="fill:#ffd700;stroke:#ffd700;" x="328.846752" xlink:href="#md49950663d" y="142.50526"/>
    </g>
   </g>
   <g id="line2d_78">
    <path clip-path="url(#pea9d488be9)" d="M 389.096388 158.161376 
" style="fill:none;stroke:#ffd700;stroke-linecap:square;stroke-width:1.5;"/>
    <g clip-path="url(#pea9d488be9)">
     <use style="fill:#ffd700;stroke:#ffd700;" x="389.096388" xlink:href="#md49950663d" y="158.161376"/>
    </g>
   </g>
   <g id="line2d_79">
    <path clip-path="url(#pea9d488be9)" d="M 388.175793 160.673761 
" style="fill:none;stroke:#ffd700;stroke-linecap:square;stroke-width:1.5;"/>
    <g clip-path="url(#pea9d488be9)">
     <use style="fill:#ffd700;stroke:#ffd700;" x="388.175793" xlink:href="#md49950663d" y="160.673761"/>
    </g>
   </g>
   <g id="line2d_80">
    <path clip-path="url(#pea9d488be9)" d="M 328.905 139.886354 
" style="fill:none;stroke:#ffd700;stroke-linecap:square;stroke-width:1.5;"/>
    <g clip-path="url(#pea9d488be9)">
     <use style="fill:#ffd700;stroke:#ffd700;" x="328.905" xlink:href="#md49950663d" y="139.886354"/>
    </g>
   </g>
   <g id="line2d_81">
    <path clip-path="url(#pea9d488be9)" d="M 391.216752 141.25786 
" style="fill:none;stroke:#ffd700;stroke-linecap:square;stroke-width:1.5;"/>
    <g clip-path="url(#pea9d488be9)">
     <use style="fill:#ffd700;stroke:#ffd700;" x="391.216752" xlink:href="#md49950663d" y="141.25786"/>
    </g>
   </g>
   <g id="line2d_82">
    <path clip-path="url(#pea9d488be9)" d="M 451.466388 156.913976 
" style="fill:none;stroke:#ffd700;stroke-linecap:square;stroke-width:1.5;"/>
    <g clip-path="url(#pea9d488be9)">
     <use style="fill:#ffd700;stroke:#ffd700;" x="451.466388" xlink:href="#md49950663d" y="156.913976"/>
    </g>
   </g>
   <g id="line2d_83">
    <path clip-path="url(#pea9d488be9)" d="M 450.545793 159.426361 
" style="fill:none;stroke:#ffd700;stroke-linecap:square;stroke-width:1.5;"/>
    <g clip-path="url(#pea9d488be9)">
     <use style="fill:#ffd700;stroke:#ffd700;" x="450.545793" xlink:href="#md49950663d" y="159.426361"/>
    </g>
   </g>
   <g id="line2d_84">
    <path clip-path="url(#pea9d488be9)" d="M 511.190232 174.694435 
" style="fill:none;stroke:#ffd700;stroke-linecap:square;stroke-width:1.5;"/>
    <g clip-path="url(#pea9d488be9)">
     <use style="fill:#ffd700;stroke:#ffd700;" x="511.190232" xlink:href="#md49950663d" y="174.694435"/>
    </g>
   </g>
   <g id="line2d_85">
    <path clip-path="url(#pea9d488be9)" d="M 573.339241 178.248778 
" style="fill:none;stroke:#ffd700;stroke-linecap:square;stroke-width:1.5;"/>
    <g clip-path="url(#pea9d488be9)">
     <use style="fill:#ffd700;stroke:#ffd700;" x="573.339241" xlink:href="#md49950663d" y="178.248778"/>
    </g>
   </g>
   <g id="line2d_86">
    <path clip-path="url(#pea9d488be9)" d="M 573.232587 175.575167 
" style="fill:none;stroke:#ffd700;stroke-linecap:square;stroke-width:1.5;"/>
    <g clip-path="url(#pea9d488be9)">
     <use style="fill:#ffd700;stroke:#ffd700;" x="573.232587" xlink:href="#md49950663d" y="175.575167"/>
    </g>
   </g>
   <g id="line2d_87">
    <path clip-path="url(#pea9d488be9)" d="M 391.275 138.638954 
" style="fill:none;stroke:#ffd700;stroke-linecap:square;stroke-width:1.5;"/>
    <g clip-path="url(#pea9d488be9)">
     <use style="fill:#ffd700;stroke:#ffd700;" x="391.275" xlink:href="#md49950663d" y="138.638954"/>
    </g>
   </g>
   <g id="line2d_88">
    <path clip-path="url(#pea9d488be9)" d="M 453.586752 140.01046 
" style="fill:none;stroke:#ffd700;stroke-linecap:square;stroke-width:1.5;"/>
    <g clip-path="url(#pea9d488be9)">
     <use style="fill:#ffd700;stroke:#ffd700;" x="453.586752" xlink:href="#md49950663d" y="140.01046"/>
    </g>
   </g>
   <g id="line2d_89">
    <path clip-path="url(#pea9d488be9)" d="M 513.836388 155.666576 
" style="fill:none;stroke:#ffd700;stroke-linecap:square;stroke-width:1.5;"/>
    <g clip-path="url(#pea9d488be9)">
     <use style="fill:#ffd700;stroke:#ffd700;" x="513.836388" xlink:href="#md49950663d" y="155.666576"/>
    </g>
   </g>
   <g id="line2d_90">
    <path clip-path="url(#pea9d488be9)" d="M 572.813511 175.957359 
" style="fill:none;stroke:#ffd700;stroke-linecap:square;stroke-width:1.5;"/>
    <g clip-path="url(#pea9d488be9)">
     <use style="fill:#ffd700;stroke:#ffd700;" x="572.813511" xlink:href="#md49950663d" y="175.957359"/>
    </g>
   </g>
   <g id="line2d_91">
    <path clip-path="url(#pea9d488be9)" d="M 573.560232 173.447035 
" style="fill:none;stroke:#ffd700;stroke-linecap:square;stroke-width:1.5;"/>
    <g clip-path="url(#pea9d488be9)">
     <use style="fill:#ffd700;stroke:#ffd700;" x="573.560232" xlink:href="#md49950663d" y="173.447035"/>
    </g>
   </g>
   <g id="line2d_92">
    <path clip-path="url(#pea9d488be9)" d="M 571.857658 178.395732 
" style="fill:none;stroke:#ffd700;stroke-linecap:square;stroke-width:1.5;"/>
    <g clip-path="url(#pea9d488be9)">
     <use style="fill:#ffd700;stroke:#ffd700;" x="571.857658" xlink:href="#md49950663d" y="178.395732"/>
    </g>
   </g>
   <g id="line2d_93">
    <path clip-path="url(#pea9d488be9)" d="M 512.915793 158.178961 
" style="fill:none;stroke:#ffd700;stroke-linecap:square;stroke-width:1.5;"/>
    <g clip-path="url(#pea9d488be9)">
     <use style="fill:#ffd700;stroke:#ffd700;" x="512.915793" xlink:href="#md49950663d" y="158.178961"/>
    </g>
   </g>
   <g id="line2d_94">
    <path clip-path="url(#pea9d488be9)" d="M 453.645 137.391554 
" style="fill:none;stroke:#ffd700;stroke-linecap:square;stroke-width:1.5;"/>
    <g clip-path="url(#pea9d488be9)">
     <use style="fill:#ffd700;stroke:#ffd700;" x="453.645" xlink:href="#md49950663d" y="137.391554"/>
    </g>
   </g>
   <g id="line2d_95">
    <path clip-path="url(#pea9d488be9)" d="M 515.956752 138.76306 
" style="fill:none;stroke:#ffd700;stroke-linecap:square;stroke-width:1.5;"/>
    <g clip-path="url(#pea9d488be9)">
     <use style="fill:#ffd700;stroke:#ffd700;" x="515.956752" xlink:href="#md49950663d" y="138.76306"/>
    </g>
   </g>
   <g id="line2d_96">
    <path clip-path="url(#pea9d488be9)" d="M 576.206388 154.419176 
" style="fill:none;stroke:#ffd700;stroke-linecap:square;stroke-width:1.5;"/>
    <g clip-path="url(#pea9d488be9)">
     <use style="fill:#ffd700;stroke:#ffd700;" x="576.206388" xlink:href="#md49950663d" y="154.419176"/>
    </g>
   </g>
   <g id="line2d_97">
    <path clip-path="url(#pea9d488be9)" d="M 575.285793 156.931561 
" style="fill:none;stroke:#ffd700;stroke-linecap:square;stroke-width:1.5;"/>
    <g clip-path="url(#pea9d488be9)">
     <use style="fill:#ffd700;stroke:#ffd700;" x="575.285793" xlink:href="#md49950663d" y="156.931561"/>
    </g>
   </g>
   <g id="line2d_98">
    <path clip-path="url(#pea9d488be9)" d="M 516.015 136.144154 
" style="fill:none;stroke:#ffd700;stroke-linecap:square;stroke-width:1.5;"/>
    <g clip-path="url(#pea9d488be9)">
     <use style="fill:#ffd700;stroke:#ffd700;" x="516.015" xlink:href="#md49950663d" y="136.144154"/>
    </g>
   </g>
   <g id="line2d_99">
    <path clip-path="url(#pea9d488be9)" d="M 578.385 134.896754 
" style="fill:none;stroke:#ffd700;stroke-linecap:square;stroke-width:1.5;"/>
    <g clip-path="url(#pea9d488be9)">
     <use style="fill:#ffd700;stroke:#ffd700;" x="578.385" xlink:href="#md49950663d" y="134.896754"/>
    </g>
   </g>
   <g id="line2d_100">
    <path clip-path="url(#pea9d488be9)" d="M 578.222085 132.282271 
" style="fill:none;stroke:#ffd700;stroke-linecap:square;stroke-width:1.5;"/>
    <g clip-path="url(#pea9d488be9)">
     <use style="fill:#ffd700;stroke:#ffd700;" x="578.222085" xlink:href="#md49950663d" y="132.282271"/>
    </g>
   </g>
   <g id="line2d_101">
    <path clip-path="url(#pea9d488be9)" d="M 578.326752 137.51566 
" style="fill:none;stroke:#ffd700;stroke-linecap:square;stroke-width:1.5;"/>
    <g clip-path="url(#pea9d488be9)">
     <use style="fill:#ffd700;stroke:#ffd700;" x="578.326752" xlink:href="#md49950663d" y="137.51566"/>
    </g>
   </g>
   <g id="line2d_102">
    <path clip-path="url(#pea9d488be9)" d="M 515.852085 133.529671 
" style="fill:none;stroke:#ffd700;stroke-linecap:square;stroke-width:1.5;"/>
    <g clip-path="url(#pea9d488be9)">
     <use style="fill:#ffd700;stroke:#ffd700;" x="515.852085" xlink:href="#md49950663d" y="133.529671"/>
    </g>
   </g>
   <g id="line2d_103">
    <path clip-path="url(#pea9d488be9)" d="M 575.42745 115.476735 
" style="fill:none;stroke:#ffd700;stroke-linecap:square;stroke-width:1.5;"/>
    <g clip-path="url(#pea9d488be9)">
     <use style="fill:#ffd700;stroke:#ffd700;" x="575.42745" xlink:href="#md49950663d" y="115.476735"/>
    </g>
   </g>
   <g id="line2d_104">
    <path clip-path="url(#pea9d488be9)" d="M 574.407122 113.003174 
" style="fill:none;stroke:#ffd700;stroke-linecap:square;stroke-width:1.5;"/>
    <g clip-path="url(#pea9d488be9)">
     <use style="fill:#ffd700;stroke:#ffd700;" x="574.407122" xlink:href="#md49950663d" y="113.003174"/>
    </g>
   </g>
   <g id="line2d_105">
    <path clip-path="url(#pea9d488be9)" d="M 453.482085 134.777071 
" style="fill:none;stroke:#ffd700;stroke-linecap:square;stroke-width:1.5;"/>
    <g clip-path="url(#pea9d488be9)">
     <use style="fill:#ffd700;stroke:#ffd700;" x="453.482085" xlink:href="#md49950663d" y="134.777071"/>
    </g>
   </g>
   <g id="line2d_106">
    <path clip-path="url(#pea9d488be9)" d="M 513.05745 116.724135 
" style="fill:none;stroke:#ffd700;stroke-linecap:square;stroke-width:1.5;"/>
    <g clip-path="url(#pea9d488be9)">
     <use style="fill:#ffd700;stroke:#ffd700;" x="513.05745" xlink:href="#md49950663d" y="116.724135"/>
    </g>
   </g>
   <g id="line2d_107">
    <path clip-path="url(#pea9d488be9)" d="M 512.037122 114.250574 
" style="fill:none;stroke:#ffd700;stroke-linecap:square;stroke-width:1.5;"/>
    <g clip-path="url(#pea9d488be9)">
     <use style="fill:#ffd700;stroke:#ffd700;" x="512.037122" xlink:href="#md49950663d" y="114.250574"/>
    </g>
   </g>
   <g id="line2d_108">
    <path clip-path="url(#pea9d488be9)" d="M 559.857156 74.712318 
" style="fill:none;stroke:#ffd700;stroke-linecap:square;stroke-width:1.5;"/>
    <g clip-path="url(#pea9d488be9)">
     <use style="fill:#ffd700;stroke:#ffd700;" x="559.857156" xlink:href="#md49950663d" y="74.712318"/>
    </g>
   </g>
   <g id="line2d_109">
    <path clip-path="url(#pea9d488be9)" d="M 510.443511 177.204759 
" style="fill:none;stroke:#ffd700;stroke-linecap:square;stroke-width:1.5;"/>
    <g clip-path="url(#pea9d488be9)">
     <use style="fill:#ffd700;stroke:#ffd700;" x="510.443511" xlink:href="#md49950663d" y="177.204759"/>
    </g>
   </g>
   <g id="line2d_110">
    <path clip-path="url(#pea9d488be9)" d="M 391.112085 136.024471 
" style="fill:none;stroke:#ffd700;stroke-linecap:square;stroke-width:1.5;"/>
    <g clip-path="url(#pea9d488be9)">
     <use style="fill:#ffd700;stroke:#ffd700;" x="391.112085" xlink:href="#md49950663d" y="136.024471"/>
    </g>
   </g>
   <g id="line2d_111">
    <path clip-path="url(#pea9d488be9)" d="M 509.487658 179.643132 
" style="fill:none;stroke:#ffd700;stroke-linecap:square;stroke-width:1.5;"/>
    <g clip-path="url(#pea9d488be9)">
     <use style="fill:#ffd700;stroke:#ffd700;" x="509.487658" xlink:href="#md49950663d" y="179.643132"/>
    </g>
   </g>
   <g id="line2d_112">
    <path clip-path="url(#pea9d488be9)" d="M 558.938882 217.121205 
" style="fill:none;stroke:#ffd700;stroke-linecap:square;stroke-width:1.5;"/>
    <g clip-path="url(#pea9d488be9)">
     <use style="fill:#ffd700;stroke:#ffd700;" x="558.938882" xlink:href="#md49950663d" y="217.121205"/>
    </g>
   </g>
   <g id="line2d_113">
    <path clip-path="url(#pea9d488be9)" d="M 572.022492 96.569582 
" style="fill:none;stroke:#ffd700;stroke-linecap:square;stroke-width:1.5;"/>
    <g clip-path="url(#pea9d488be9)">
     <use style="fill:#ffd700;stroke:#ffd700;" x="572.022492" xlink:href="#md49950663d" y="96.569582"/>
    </g>
   </g>
   <g id="line2d_114">
    <path clip-path="url(#pea9d488be9)" d="M 633.98 93.208522 
" style="fill:none;stroke:#ffd700;stroke-linecap:square;stroke-width:1.5;"/>
    <g clip-path="url(#pea9d488be9)">
     <use style="fill:#ffd700;stroke:#ffd700;" x="633.98" xlink:href="#md49950663d" y="93.208522"/>
    </g>
   </g>
   <g id="line2d_115">
    <path clip-path="url(#pea9d488be9)" d="M 693.266121 111.516587 
" style="fill:none;stroke:#ffd700;stroke-linecap:square;stroke-width:1.5;"/>
    <g clip-path="url(#pea9d488be9)">
     <use style="fill:#ffd700;stroke:#ffd700;" x="693.266121" xlink:href="#md49950663d" y="111.516587"/>
    </g>
   </g>
   <g id="line2d_116">
    <path clip-path="url(#pea9d488be9)" d="M 744.279053 147.193097 
" style="fill:none;stroke:#ffd700;stroke-linecap:square;stroke-width:1.5;"/>
    <g clip-path="url(#pea9d488be9)">
     <use style="fill:#ffd700;stroke:#ffd700;" x="744.279053" xlink:href="#md49950663d" y="147.193097"/>
    </g>
   </g>
   <g id="line2d_117">
    <path clip-path="url(#pea9d488be9)" d="M 742.540409 149.226983 
" style="fill:none;stroke:#ffd700;stroke-linecap:square;stroke-width:1.5;"/>
    <g clip-path="url(#pea9d488be9)">
     <use style="fill:#ffd700;stroke:#ffd700;" x="742.540409" xlink:href="#md49950663d" y="149.226983"/>
    </g>
   </g>
   <g id="line2d_118">
    <path clip-path="url(#pea9d488be9)" d="M 794.058649 184.677416 
" style="fill:none;stroke:#ffd700;stroke-linecap:square;stroke-width:1.5;"/>
    <g clip-path="url(#pea9d488be9)">
     <use style="fill:#ffd700;stroke:#ffd700;" x="794.058649" xlink:href="#md49950663d" y="184.677416"/>
    </g>
   </g>
   <g id="line2d_119">
    <path clip-path="url(#pea9d488be9)" d="M 794.058649 184.677416 
" style="fill:none;stroke:#008000;stroke-linecap:square;stroke-width:1.5;"/>
    <defs>
     <path d="M 0 4 
C 1.060812 4 2.078319 3.578535 2.828427 2.828427 
C 3.578535 2.078319 4 1.060812 4 0 
C 4 -1.060812 3.578535 -2.078319 2.828427 -2.828427 
C 2.078319 -3.578535 1.060812 -4 0 -4 
C -1.060812 -4 -2.078319 -3.578535 -2.828427 -2.828427 
C -3.578535 -2.078319 -4 -1.060812 -4 0 
C -4 1.060812 -3.578535 2.078319 -2.828427 2.828427 
C -2.078319 3.578535 -1.060812 4 0 4 
z
" id="md18a0208f9" style="stroke:#008000;"/>
    </defs>
    <g clip-path="url(#pea9d488be9)">
     <use style="fill:#008000;stroke:#008000;" x="794.058649" xlink:href="#md18a0208f9" y="184.677416"/>
    </g>
   </g>
   <g id="line2d_120">
    <path clip-path="url(#pea9d488be9)" d="M 79.425 144.875954 
" style="fill:none;stroke:#008000;stroke-linecap:square;stroke-width:1.5;"/>
    <g clip-path="url(#pea9d488be9)">
     <use style="fill:#008000;stroke:#008000;" x="79.425" xlink:href="#md18a0208f9" y="144.875954"/>
    </g>
   </g>
   <g id="line2d_121">
    <path clip-path="url(#pea9d488be9)" d="M 141.795 143.628554 
" style="fill:none;stroke:#008000;stroke-linecap:square;stroke-width:1.5;"/>
    <g clip-path="url(#pea9d488be9)">
     <use style="fill:#008000;stroke:#008000;" x="141.795" xlink:href="#md18a0208f9" y="143.628554"/>
    </g>
   </g>
   <g id="line2d_122">
    <path clip-path="url(#pea9d488be9)" d="M 204.165 142.381154 
" style="fill:none;stroke:#008000;stroke-linecap:square;stroke-width:1.5;"/>
    <g clip-path="url(#pea9d488be9)">
     <use style="fill:#008000;stroke:#008000;" x="204.165" xlink:href="#md18a0208f9" y="142.381154"/>
    </g>
   </g>
   <g id="line2d_123">
    <path clip-path="url(#pea9d488be9)" d="M 266.535 141.133754 
" style="fill:none;stroke:#008000;stroke-linecap:square;stroke-width:1.5;"/>
    <g clip-path="url(#pea9d488be9)">
     <use style="fill:#008000;stroke:#008000;" x="266.535" xlink:href="#md18a0208f9" y="141.133754"/>
    </g>
   </g>
   <g id="line2d_124">
    <path clip-path="url(#pea9d488be9)" d="M 328.905 139.886354 
" style="fill:none;stroke:#008000;stroke-linecap:square;stroke-width:1.5;"/>
    <g clip-path="url(#pea9d488be9)">
     <use style="fill:#008000;stroke:#008000;" x="328.905" xlink:href="#md18a0208f9" y="139.886354"/>
    </g>
   </g>
   <g id="line2d_125">
    <path clip-path="url(#pea9d488be9)" d="M 391.275 138.638954 
" style="fill:none;stroke:#008000;stroke-linecap:square;stroke-width:1.5;"/>
    <g clip-path="url(#pea9d488be9)">
     <use style="fill:#008000;stroke:#008000;" x="391.275" xlink:href="#md18a0208f9" y="138.638954"/>
    </g>
   </g>
   <g id="line2d_126">
    <path clip-path="url(#pea9d488be9)" d="M 453.482085 134.777071 
" style="fill:none;stroke:#008000;stroke-linecap:square;stroke-width:1.5;"/>
    <g clip-path="url(#pea9d488be9)">
     <use style="fill:#008000;stroke:#008000;" x="453.482085" xlink:href="#md18a0208f9" y="134.777071"/>
    </g>
   </g>
   <g id="line2d_127">
    <path clip-path="url(#pea9d488be9)" d="M 513.05745 116.724135 
" style="fill:none;stroke:#008000;stroke-linecap:square;stroke-width:1.5;"/>
    <g clip-path="url(#pea9d488be9)">
     <use style="fill:#008000;stroke:#008000;" x="513.05745" xlink:href="#md18a0208f9" y="116.724135"/>
    </g>
   </g>
   <g id="line2d_128">
    <path clip-path="url(#pea9d488be9)" d="M 572.022492 96.569582 
" style="fill:none;stroke:#008000;stroke-linecap:square;stroke-width:1.5;"/>
    <g clip-path="url(#pea9d488be9)">
     <use style="fill:#008000;stroke:#008000;" x="572.022492" xlink:href="#md18a0208f9" y="96.569582"/>
    </g>
   </g>
   <g id="line2d_129">
    <path clip-path="url(#pea9d488be9)" d="M 633.98 93.208522 
" style="fill:none;stroke:#008000;stroke-linecap:square;stroke-width:1.5;"/>
    <g clip-path="url(#pea9d488be9)">
     <use style="fill:#008000;stroke:#008000;" x="633.98" xlink:href="#md18a0208f9" y="93.208522"/>
    </g>
   </g>
   <g id="line2d_130">
    <path clip-path="url(#pea9d488be9)" d="M 693.266121 111.516587 
" style="fill:none;stroke:#008000;stroke-linecap:square;stroke-width:1.5;"/>
    <g clip-path="url(#pea9d488be9)">
     <use style="fill:#008000;stroke:#008000;" x="693.266121" xlink:href="#md18a0208f9" y="111.516587"/>
    </g>
   </g>
   <g id="line2d_131">
    <path clip-path="url(#pea9d488be9)" d="M 744.279053 147.193097 
" style="fill:none;stroke:#008000;stroke-linecap:square;stroke-width:1.5;"/>
    <g clip-path="url(#pea9d488be9)">
     <use style="fill:#008000;stroke:#008000;" x="744.279053" xlink:href="#md18a0208f9" y="147.193097"/>
    </g>
   </g>
   <g id="line2d_132">
    <path clip-path="url(#pea9d488be9)" d="M 794.058649 184.677416 
" style="fill:none;stroke:#008000;stroke-linecap:square;stroke-width:1.5;"/>
    <g clip-path="url(#pea9d488be9)">
     <use style="fill:#008000;stroke:#008000;" x="794.058649" xlink:href="#md18a0208f9" y="184.677416"/>
    </g>
   </g>
  </g>
 </g>
 <defs>
  <clipPath id="pea9d488be9">
   <rect height="277.2" width="906.75" x="7.2" y="7.2"/>
  </clipPath>
 </defs>
</svg>
